<svg width="21px" height="24px" viewBox="0 0 21 24" version="1.1" xmlns="http://www.w3.org/2000/svg" xmlns:xlink="http://www.w3.org/1999/xlink">
    <!-- Generator: Sketch 51.2 (57519) - http://www.bohemiancoding.com/sketch -->
    <desc>Created with Sketch.</desc>
    <defs>
        <path d="M20.5865285,14.9563636 L20.5865285,14.4109091 L15.5378238,14.5909091 L13.5248705,13.4236364 L13.5248705,10.5763636 L15.5378238,9.40909091 L20.5865285,9.58909091 L20.5865285,9.04363636 L16.4028497,8.89636364 L21,6.23454545 L20.7279793,5.76545455 L16.130829,8.42727273 L18.1165803,4.71818182 L17.6378238,4.46727273 L15.2658031,8.94 L13.2202073,10.1072727 L10.7720207,8.68363636 L10.7720207,6.34909091 L13.4487047,2.05090909 L12.9917098,1.76727273 L10.7720207,5.32363636 L10.7720207,0 L10.2279793,0 L10.2279793,5.32363636 L8.00829016,1.76727273 L7.55129534,2.05090909 L10.2279793,6.34909091 L10.2279793,8.68363636 L7.77979275,10.1072727 L5.76683938,8.94 L3.39481865,4.46727273 L2.91606218,4.71818182 L4.88005181,8.42727273 L0.272020725,5.76545455 L0,6.23454545 L4.59715026,8.89636364 L0.413471503,9.04363636 L0.413471503,9.58909091 L5.46217617,9.40909091 L7.47512953,10.5763636 L7.47512953,13.4236364 L5.46217617,14.5909091 L0.413471503,14.4109091 L0.413471503,14.9563636 L4.59715026,15.1036364 L0,17.7654545 L0.272020725,18.2345455 L4.86917098,15.5727273 L2.88341969,19.2818182 L3.36217617,19.5327273 L5.73419689,15.06 L7.77979275,13.8927273 L10.2388601,15.3163636 L10.2388601,17.6509091 L7.56217617,21.9490909 L8.01917098,22.2327273 L10.2388601,18.6763636 L10.2388601,24 L10.7829016,24 L10.7829016,18.6763636 L13.0025907,22.2327273 L13.4595855,21.9490909 L10.7720207,17.6509091 L10.7720207,15.3163636 L13.2202073,13.8927273 L15.2331606,15.06 L17.6051813,19.5327273 L18.0839378,19.2818182 L16.1199482,15.5727273 L20.7170984,18.2345455 L20.9891192,17.7654545 L16.3919689,15.1036364 L20.5865285,14.9563636 Z M12.9590674,13.0909091 L11.0440415,12 L12.9590674,10.9090909 L12.9590674,13.0909091 Z M12.6761658,10.4181818 L10.7611399,11.5090909 L10.7611399,9.31090909 L12.6761658,10.4181818 Z M10.2170984,9.32727273 L10.2170984,11.5418182 L8.3238342,10.4181818 L10.2170984,9.32727273 Z M8.04093264,10.9090909 L9.95595855,12 L8.04093264,13.0909091 L8.04093264,10.9090909 Z M8.3238342,13.5818182 L10.2388601,12.4909091 L10.2388601,14.7054545 L8.3238342,13.5818182 Z M10.7829016,14.6727273 L10.7829016,12.4745455 L12.6979275,13.5654545 L10.7829016,14.6727273 Z" id="path-1"></path>
    </defs>
    <g id="SC-symbols" stroke="none" stroke-width="1" fill="none" fill-rule="evenodd">
        <g id="Icons/ice-crystal2SVG">
            <g id="Colors/blue-337ab7-Copy-2">
                <mask id="mask-2" fill="white">
                    <use xlink:href="#path-1"></use>
                </mask>
                <use id="Mask" fill="#ffffff" fill-rule="nonzero" xlink:href="#path-1"></use>
            </g>
        </g>
    </g>
</svg>