<svg width="21px" height="24px" viewBox="0 0 21 24" version="1.1" xmlns="http://www.w3.org/2000/svg" xmlns:xlink="http://www.w3.org/1999/xlink">
    <!-- Generator: Sketch 51.2 (57519) - http://www.bohemiancoding.com/sketch -->
    <desc>Created with Sketch.</desc>
    <defs>
        <path d="M20.8043118,14.1393281 C20.9418831,13.8983586 20.9861827,13.6150826 20.9287684,13.3434844 C20.8013185,12.7357031 20.2113541,12.347625 19.6110535,12.4766719 L15.5229755,13.6507031 L12.3474388,12 L15.5229755,10.3492969 L19.6110535,11.5233281 C20.2113541,11.652375 20.8013185,11.2642969 20.9287684,10.6565156 C21.0562183,10.0487344 20.6728864,9.45145313 20.0726325,9.32240625 L17.8521047,8.98785937 L20.3345479,7.53679688 C20.8660022,7.22615625 21.0481269,6.53807812 20.741265,6 C20.4344031,5.46192187 19.7548263,5.2775625 19.2233719,5.58820312 L16.7409287,7.03926562 L17.5650735,4.92501562 C17.7548218,4.33410937 17.4356125,3.69942187 16.8519621,3.50728125 C16.2683586,3.31514062 15.6413987,3.63839062 15.4516503,4.22925 L14.4118463,8.40065625 L11.5878374,10.0513594 L11.5878374,6.75 L14.6361114,3.75257813 C15.0466637,3.29076563 15.0096682,2.5794375 14.5535145,2.16379688 C14.0973608,1.74815625 13.3947728,1.78560938 12.9842673,2.24742188 L11.5878374,4.027125 L11.5878374,1.125 C11.5878374,0.503671875 11.0903385,0 10.4766615,0 C9.86298441,0 9.36548552,0.503671875 9.36548552,1.125 L9.36548552,4.027125 L7.96905568,2.24742188 C7.55845657,1.78560938 6.85596214,1.74810938 6.39980846,2.16379688 C5.94365479,2.5794375 5.90670601,3.29076563 6.31721158,3.75257813 L9.36543875,6.75 L9.36543875,10.0514531 L6.54142984,8.40075 L5.50162584,4.22934375 C5.31187751,3.63848437 4.68491759,3.31523437 4.10131403,3.507375 C3.51771047,3.69951562 3.19845434,4.33425 3.38820267,4.92510937 L4.21230067,7.03935938 L1.72985746,5.58829688 C1.19840312,5.27765625 0.518826281,5.46201562 0.211964365,6.00009375 C-0.0948975501,6.53817188 0.0872271715,7.22620313 0.618681514,7.53689062 L3.10112472,8.98795313 L0.880596882,9.3225 C0.280296214,9.45159375 -0.103035635,10.0488281 0.0244610245,10.6566094 C0.151910913,11.2643438 0.741875278,11.6524688 1.34217595,11.5234219 L5.4302539,10.3493906 L8.60579065,12 L5.4302539,13.6507031 L1.34222272,12.4767187 C0.741922049,12.3476719 0.151957684,12.73575 0.0245077951,13.3435313 C-0.102942094,13.9513594 0.280342984,14.5485938 0.880643653,14.6776406 L3.10117149,15.0121875 L0.618728285,16.46325 C0.0872739421,16.7738906 -0.0948040089,17.4619219 0.212011136,18 C0.518826281,18.5380781 1.19844989,18.7224375 1.72990423,18.4117969 L4.21234744,16.9607344 L3.38824944,19.0749844 C3.29045285,19.3783542 3.32478738,19.7089873 3.4828196,19.9856719 C3.61522717,20.2178438 3.82967038,20.4032813 4.10131403,20.4926719 C4.68491759,20.6848125 5.31187751,20.3615625 5.50162584,19.7707031 L6.54142984,15.5992969 L9.36543875,13.9485938 L9.36543875,17.25 L6.31716481,20.2474219 C5.90661247,20.7092344 5.94360802,21.4205625 6.39976169,21.8362031 C6.85596214,22.2518906 7.55845657,22.2143906 7.96900891,21.7525781 L9.36543875,19.972875 L9.36543875,22.875 C9.36543875,23.4963281 9.86293764,24 10.4766147,24 C11.0902918,24 11.5877906,23.4963281 11.5877906,22.875 L11.5877906,19.972875 L12.9842205,21.7525781 C13.1937472,21.9895605 13.494586,22.1251523 13.8105167,22.125 C14.0854644,22.1251125 14.350499,22.0220894 14.5534677,21.8362031 C15.0096214,21.4205625 15.0466169,20.7092344 14.6360646,20.2474219 L11.5877906,17.25 L11.5877906,13.9485469 L14.4117996,15.59925 L15.4516036,19.7706563 C15.6413519,20.3615156 16.2683118,20.6847656 16.8519154,20.492625 C17.4355657,20.3004844 17.7547751,19.66575 17.5650267,19.0748906 L16.740882,16.9606406 L19.2233252,18.4117031 C19.7547795,18.7223438 20.4343563,18.5379844 20.7412183,17.9999062 C21.0480802,17.4618281 20.8659555,16.7737969 20.3345011,16.4631094 L17.8520579,15.0120469 L20.0725857,14.6775 C20.3934321,14.6086406 20.6522606,14.4059531 20.8043118,14.1393281 Z" id="path-1"></path>
    </defs>
    <g id="SC-symbols" stroke="none" stroke-width="1" fill="none" fill-rule="evenodd">
        <g id="Icons/snowflake2SVG">
            <mask id="mask-2" fill="white">
                <use xlink:href="#path-1"></use>
            </mask>
            <use id="Shape" fill="#ffffff" fill-rule="nonzero" xlink:href="#path-1"></use>
        </g>
    </g>
</svg>
