<svg width="15px" height="30px" viewBox="0 0 15 30" version="1.1" xmlns="http://www.w3.org/2000/svg" xmlns:xlink="http://www.w3.org/1999/xlink">
    <!-- Generator: Sketch 51.2 (57519) - http://www.bohemiancoding.com/sketch -->
    <desc>Created with Sketch.</desc>
    <defs>
        <path d="M11.25,22.5 C11.25,24.5710547 9.57105469,26.25 7.5,26.25 C5.42894531,26.25 3.75,24.5710547 3.75,22.5 C3.75,21.112207 4.50445312,19.9014258 5.625,19.2529102 L5.625,13.125 C5.625,12.0894727 6.46447266,11.25 7.5,11.25 C8.53552734,11.25 9.375,12.0894727 9.375,13.125 L9.375,19.2529102 C10.4955469,19.9014258 11.25,21.112207 11.25,22.5 Z M13.125,17.5398633 C14.2917187,18.8619141 15,20.5981055 15,22.5 C15,26.6423438 11.6424023,30 7.5,30 C7.48248047,30 7.46431641,29.9999414 7.44673828,29.9998242 C3.32748047,29.9712305 -0.0209179688,26.5802344 0.0001171875,22.460918 C0.0097265625,20.5743164 0.716308594,18.852832 1.875,17.5398633 L1.875,5.625 C1.875,2.51841797 4.39341797,0 7.5,0 C10.606582,0 13.125,2.51841797 13.125,5.625 L13.125,17.5398633 Z M12.1875,22.5 C12.1875,20.4879492 11.0525391,19.4419922 10.3125,18.6033984 L10.3125,5.625 C10.3125,4.07419922 9.05080078,2.8125 7.5,2.8125 C5.94919922,2.8125 4.6875,4.07419922 4.6875,5.625 L4.6875,18.6033984 C3.94148438,19.4487891 2.82275391,20.4842578 2.81255859,22.4752734 C2.79943359,25.0461328 4.89632813,27.1695703 7.46625,27.1873828 L7.5,27.1875 C10.0846875,27.1875 12.1875,25.0846875 12.1875,22.5 Z" id="path-1"></path>
    </defs>
    <g id="SC-symbols" stroke="none" stroke-width="1" fill="none" fill-rule="evenodd">
        <g id="Icons/thermometer2svg">
            <g id="Colors/blue-337ab7-Copy-2">
                <mask id="mask-2" fill="white">
                    <use xlink:href="#path-1"></use>
                </mask>
                <use id="Mask" fill="#ffffff" fill-rule="nonzero" xlink:href="#path-1"></use>
            </g>
        </g>
    </g>
</svg>
